# xmcd
#
# Track frame offsets:
#	150
#	15453
#	34677
#	50148
#	65816
#	83166
#	104431
#	127080
#	153067
#	176975
#	196778
#	235982
#	264739
#	284615
#
# Disc length: 4090 seconds
#
# Revision: 0
# Processed by: cddbd v1.5PL3 Copyright (c) Steve Scherf et al.
# Submitted via: dBpowerAMP V4.0
#
DISCID=cb0ff80e
DTITLE=Various Artist - Loop Magazin - The Compilation
DYEAR=2003
DGENRE=Deep House
TTITLE0=TM Juke - Map Two
TTITLE1=Niko - Don't Waste Your Time
TTITLE2=Chunking - Making Music
TTITLE3=Dynamo Productions - We're Through
TTITLE4=Frederico Aubele - Postales
TTITLE5=Taxi - And You Lied
TTITLE6=Black Grass - Toys
TTITLE7=Future Loop Foundation - Whats Your Name
TTITLE8=EMO - Breakdown
TTITLE9=Puddu Varano - Running With The Devil
TTITLE10=Bent - Magic-Love
TTITLE11=Hird - Keep You Kimi feat. Yukimi Nagano
TTITLE12=Plej - You
TTITLE13=Tosca - Gute Laune
EXTD=
EXTT0=
EXTT1=
EXTT2=
EXTT3=
EXTT4=
EXTT5=
EXTT6=
EXTT7=
EXTT8=
EXTT9=
EXTT10=
EXTT11=
EXTT12=
EXTT13=
PLAYORDER=
